# xmcd CD database file
#
# Track frame offsets:
#	150
#	22824
#	46393
#	67921
#	87686
#	107070
#	128013
#	150002
#	174869
#	195358
#	217984
#	234759
#
# Disc length: 3358 seconds
#
# Revision: 5
# Processed by: cddbd v1.5.1PL2 Copyright (c) Steve Scherf et al.
# Submitted via: CDex 1.51
#
DISCID=820d1c0c
DTITLE=Emmylou Harris - Red Dirt Girl
DYEAR=2000
DGENRE=Country
TTITLE0=Pearl
TTITLE1=Michelangelo
TTITLE2=I Don't Wanna Talk About It Now
TTITLE3=Tragedy
TTITLE4=Red Dirt Girl
TTITLE5=My Baby Needs A Shepherd
TTITLE6=Bang The Drum Slowly
TTITLE7=J'ai Fait Tout
TTITLE8=One Big Love
TTITLE9=Hour Of Gold
TTITLE10=My Antonia
TTITLE11=Boy From Tupelo
EXTD=YEAR: 2000
EXTT0=
EXTT1=
EXTT2=
EXTT3=
EXTT4=
EXTT5=
EXTT6=
EXTT7=
EXTT8=
EXTT9=
EXTT10=
EXTT11=
PLAYORDER=
